# xmcd
#
# Track frame offsets:
# 150
# 12250
# 25482
# 36600
# 53962
# 70947
# 88957
# 102322
# 113375
# 128107
# 145202
# 160084
#
# Disc length: 2325 seconds
#
#
# Revision: 0
# Processed by: cddbd v1.5.2PL0 Copyright (c) Steve Scherf et al.
# Submitted via: FreeRIP 2.951 
#
DISCID=a509130c
DTITLE=Green Hill Insturmental Classic - Tennessee Memories
DYEAR=1900
DGENRE=Country
TTITLE0=My Tennessee Mountain Home
TTITLE1=Chattanooga Choo Choo
TTITLE2=Rocky Top
TTITLE3=Tennessee Waltz
TTITLE4=Tennessee River
TTITLE5=Smokey Mountain Memories
TTITLE6=Memphis
TTITLE7=Don't Let the Smokey Mountain Smoke Get in your Eyes
TTITLE8=Nashville Blues
TTITLE9=Tennessee Stud
TTITLE10=Knoxville Girl
TTITLE11=Tennessee Flat Top Box
EXTD=
EXTT0=
EXTT1=
EXTT2=
EXTT3=
EXTT4=
EXTT5=
EXTT6=
EXTT7=
EXTT8=
EXTT9=
EXTT10=
EXTT11=
PLAYORDER=
